<svg xmlns="http://www.w3.org/2000/svg" width="500" height="500" viewBox="0 0 132.292 132.292"><path d="M63.263 123.933c-.411-.036-1.855-.13-3.21-.207-1.354-.078-2.6-.182-2.77-.232a9 9 0 0 0-.967-.175c-2.963-.385-9.208-1.902-10.067-2.446-.097-.062-.698-.303-1.337-.537-1.748-.64-3.94-1.6-4.73-2.07-.387-.23-1.06-.592-1.495-.803-.927-.451-2.35-1.295-3.65-2.163a24 24 0 0 0-1.274-.808c-1.026-.555-4.805-3.559-6.112-4.856-.362-.36-.976-.937-1.362-1.281-1.021-.908-2.797-2.752-3.368-3.498-.271-.355-.72-.895-.999-1.2a15 15 0 0 1-.751-.89 91 91 0 0 0-.912-1.193 27 27 0 0 1-1.128-1.579 25 25 0 0 0-1.024-1.448c-.309-.4-.627-.863-.708-1.028s-.513-.904-.961-1.641c-.94-1.547-3.324-6.425-3.934-8.047-.228-.607-.647-1.787-.932-2.623-.284-.835-.638-1.87-.786-2.3-.518-1.504-1.464-5.808-1.78-8.099a68 68 0 0 0-.266-1.784 7 7 0 0 1-.083-.966 5 5 0 0 0-.083-.885c-.305-1.406-.37-2.435-.372-5.936-.002-3.21.016-3.656.189-4.74.104-.657.224-1.66.265-2.227s.096-1.066.121-1.109c.026-.043.091-.449.146-.901.194-1.608.897-5.385 1.266-6.806.43-1.65.49-1.852.784-2.577.165-.405.38-1.005.479-1.334.426-1.415 1.535-4.393 1.863-5 .507-.938 1.375-2.735 1.453-3.007.096-.334.933-1.84 1.024-1.84.042 0 .077-.057.077-.125 0-.07.277-.566.615-1.104.339-.539.78-1.288.982-1.665.336-.629.523-.905 1.508-2.225.185-.247.655-.904 1.046-1.461.39-.557.854-1.178 1.03-1.38.175-.203.54-.659.811-1.013.633-.826 5.202-5.58 6.01-6.253.339-.282.735-.621.88-.754a30 30 0 0 1 2.55-2.058c.58-.423 1.51-1.108 2.066-1.523s1.254-.882 1.55-1.038.719-.41.937-.564.42-.28.45-.28c.028 0 .24-.141.47-.314.425-.32 2.348-1.356 2.748-1.482.12-.038.655-.296 1.187-.572 1.789-.93 2.716-1.331 4.792-2.07 1.137-.404 2.284-.828 2.55-.941.575-.247 1.465-.497 3.078-.866 2.43-.555 3.247-.708 5.231-.978.58-.079 1.313-.187 1.627-.242s1.422-.133 2.462-.176c1.04-.044 2.069-.121 2.286-.172.578-.136 2.371-.116 3.386.038.483.073 1.413.134 2.066.135s1.543.06 1.978.133c.436.071 1.049.158 1.363.193 1.414.155 3.782.561 5.144.881 2.077.488 2.628.655 5.716 1.74 2.813.987 2.808.985 6.374 2.74l1.443.704c.93.452 4.613 2.77 5.636 3.547.338.257.991.734 1.45 1.06.898.636 1.802 1.355 2.237 1.78.148.144.677.586 1.175.981 1.043.827 5.42 5.33 6.219 6.397.284.38.538.71.565.736.184.172 1.041 1.293 1.548 2.025.333.48.785 1.103 1.004 1.382.404.516.652.907 1.722 2.713.33.557.776 1.298.991 1.647.45.73 2.658 5.166 2.927 5.881.098.263.233.603.299.755.284.655.592 1.49 1.056 2.86.273.806.649 1.88.835 2.385.186.507.357 1.045.378 1.197s.082.38.134.506c.138.341.876 3.542.976 4.233.047.33.148.971.224 1.427.226 1.363.404 2.702.494 3.727.047.531.144 1.339.217 1.794.072.456.14 1.191.15 1.634s.039.805.063.805c.074 0 .04 6.078-.038 6.718-.04.33-.11.702-.155.829-.046.126-.12.85-.166 1.61-.045.76-.141 1.712-.212 2.117s-.193 1.15-.27 1.656c-.167 1.096-.618 3.526-.742 3.994-.048.182-.166.684-.262 1.114-.206.923-.722 2.606-1.213 3.957l-.753 2.09a32 32 0 0 1-.67 1.722c-.147.329-.267.644-.267.701s-.288.69-.64 1.408a69 69 0 0 0-.941 1.994c-.512 1.166-3.016 5.47-3.776 6.488-.227.303-.582.814-.79 1.135-.207.32-.7.995-1.094 1.499l-1.056 1.35c-.187.238-.523.66-.748.935-.588.725-3.89 4.33-3.966 4.33-.035 0-.456.376-.935.837-1.602 1.541-4.667 4.006-6.265 5.038-.418.27-1.205.802-1.748 1.18-2.319 1.62-6.622 3.83-9.74 5.001-.774.291-1.664.635-1.978.765-1.384.572-3.94 1.259-7.237 1.946-1.103.23-2.134.417-2.291.417s-.7.079-1.205.175-1.59.2-2.413.234c-.822.033-2.147.102-2.945.154s-1.57.102-1.715.11c-.145.01-.6-.012-1.011-.048m1.758-5.871c1.52-.106 3.014-.254 3.694-.365l1.758-.283c1.998-.32 5.417-1.078 7.078-1.57 1.903-.563 4.025-1.36 7.079-2.659 1.175-.5 5.288-2.686 6.463-3.436.628-.401 1.36-.861 1.626-1.022.747-.452 1.458-.979 4.199-3.11a44 44 0 0 0 1.744-1.45l1.67-1.473c1.12-.985 2.691-2.6 3.316-3.405.295-.38.854-1.042 1.244-1.473a25 25 0 0 0 1.368-1.683l1.182-1.61c.795-1.081 3.173-4.832 3.626-5.72.22-.433.69-1.326 1.042-1.984s.905-1.838 1.227-2.623c.323-.784.682-1.66.8-1.944s.213-.565.213-.622.04-.177.087-.265c.434-.796 1.443-3.971 1.761-5.544.036-.177.169-.736.295-1.242.254-1.02.881-4.528 1.078-6.028.07-.531.168-1.567.218-2.3.11-1.597.047-7.518-.09-8.375a95 95 0 0 1-.233-1.61l-.215-1.565a19 19 0 0 0-.216-1.197 48 48 0 0 1-.265-1.334c-.167-.92-.832-3.573-1.21-4.832-.294-.973-1.285-3.635-1.783-4.785-.131-.304-.327-.78-.434-1.058-.337-.872-2.102-4.122-3.198-5.89a45 45 0 0 0-1.059-1.565l-1.1-1.562c-.884-1.256-2.236-2.805-4.381-5.018-2.336-2.41-2.476-2.541-3.676-3.45a33 33 0 0 1-1.319-1.067 21 21 0 0 0-1.513-1.154c-1.578-1.084-2.397-1.628-2.751-1.824a16 16 0 0 1-.791-.48c-.592-.385-3.949-2.176-4.88-2.605-2.532-1.165-6.91-2.647-9.76-3.302-1.622-.373-5.296-.979-5.942-.98-.197 0-.771-.068-1.275-.15-1.325-.216-8.105-.221-9.578-.007-.556.08-1.328.171-1.715.201s-.92.095-1.187.144c-.266.048-1.117.194-1.89.323-.774.129-1.684.293-2.023.365-1.726.367-2.443.545-3.165.784-.435.144-1.346.429-2.023.633s-1.785.584-2.462.842c-.677.259-1.607.61-2.066.783-.46.172-1.191.497-1.627.723s-1.681.867-2.77 1.424-2.258 1.19-2.6 1.408a68 68 0 0 1-2.419 1.48c-.318.183-.892.57-1.275.86-.383.288-.874.651-1.091.805-.79.56-3.394 2.635-3.737 2.978-.194.194-.689.645-1.1 1.003-1.292 1.125-4.782 4.86-5.746 6.15a44 44 0 0 1-1.25 1.61c-.407.474-2.498 3.539-3.172 4.651a29 29 0 0 0-.869 1.564 26 26 0 0 1-.644 1.197c-.676 1.12-1.941 3.932-3.043 6.764-.781 2.01-1.809 5.572-2.123 7.362-.067.38-.219 1.167-.338 1.749s-.28 1.514-.356 2.07a55 55 0 0 1-.29 1.841c-.129.711-.15 1.479-.15 5.43 0 3.274.031 4.774.109 5.2.098.54.18 1.074.475 3.082.452 3.081 1.593 7.439 2.531 9.663.043.102.345.847.671 1.657.72 1.786 1.494 3.473 1.963 4.28.192.328.53.938.75 1.354.931 1.755 3.235 5.145 4.363 6.422.223.253.627.75.897 1.104.913 1.199 3.985 4.282 5.65 5.673 1.96 1.636 2.67 2.176 4.178 3.18l1.637 1.092c.247.166.777.475 1.178.685s1.331.73 2.068 1.153c1.698.976 3.594 1.8 7.091 3.083 3.102 1.139 8.32 2.296 12.08 2.68 2.331.238 6.273.317 8.391.169m-22.68-24.227c-.117-.063-.245-.238-.285-.39-.103-.395-.09-56.212.013-56.497.168-.465.192-.467 4.639-.496 2.782-.018 4.269.006 4.506.072.678.191.618-2.574.618 28.65 0 20.48-.026 28.093-.099 28.31-.057.172-.189.332-.313.382-.344.137-8.817.108-9.078-.031m34.727-.141-.22-.187-.044-11.81c-.024-6.497-.076-11.88-.116-11.963-.04-.085-.236-.182-.44-.22-.202-.036-5.155-.093-11.007-.125-5.851-.033-10.648-.069-10.659-.08a4 4 0 0 1-.154-.293c-.174-.353-.165-.791.037-1.753.264-1.256.311-1.403.773-2.406.343-.742.646-1.211 1.372-2.12.796-.996 1.057-1.253 1.795-1.767.943-.657 1.477-.931 2.748-1.409 1.177-.442 1.845-.48 8.956-.51l6.099-.025.246-.308c.212-.267.251-.285.288-.138.023.093.046-4.662.052-10.568.006-6.574.043-10.828.094-10.97a1 1 0 0 1 .326-.397c.223-.153.564-.168 4.378-.19 4.559-.027 4.961.008 5.054.438.028.127.03 11.122.006 24.434l-.044 24.203-.194.713c-.72 2.643-2.336 4.855-4.606 6.303-.985.628-2.614 1.172-3.817 1.275-.626.053-.728.039-.923-.127m-.464-23.425c-.098-.26-.082-.394.032-.274.053.056.082.178.064.272-.032.165-.035.165-.096.002z" style="fill:#000;stroke-width:.264583"/></svg>